<?xml version="1.0" encoding="UTF-8" standalone="no"?>
<svg
   xmlns:dc="http://purl.org/dc/elements/1.1/"
   xmlns:cc="http://creativecommons.org/ns#"
   xmlns:rdf="http://www.w3.org/1999/02/22-rdf-syntax-ns#"
   xmlns:svg="http://www.w3.org/2000/svg"
   xmlns="http://www.w3.org/2000/svg"
   xmlns:sodipodi="http://sodipodi.sourceforge.net/DTD/sodipodi-0.dtd"
   xmlns:inkscape="http://www.inkscape.org/namespaces/inkscape"
   inkscape:version="1.0 (4035a4fb49, 2020-05-01)"
   sodipodi:docname="U+1FA9F Window Emoji.svg"
   width="1000"
   height="1000"
   viewBox="0 0 264.58333 264.58334"
   version="1.1"
   id="svg964">
  <sodipodi:namedview
     inkscape:document-rotation="0"
     inkscape:snap-global="true"
     inkscape:current-layer="layer1"
     inkscape:window-maximized="1"
     inkscape:window-y="27"
     inkscape:window-x="0"
     inkscape:cy="600.55213"
     inkscape:cx="333.69173"
     inkscape:zoom="1"
     inkscape:guide-bbox="true"
     showguides="true"
     showgrid="false"
     id="namedview8"
     inkscape:window-height="1016"
     inkscape:window-width="1920"
     inkscape:pageshadow="2"
     inkscape:pageopacity="0"
     guidetolerance="10"
     gridtolerance="10"
     objecttolerance="10"
     borderopacity="1"
     bordercolor="#666666"
     pagecolor="#ffffff">
    <sodipodi:guide
       inkscape:color="rgb(0,0,255)"
       inkscape:label=""
       inkscape:locked="false"
       id="guide815"
       orientation="0,1"
       position="0,52.916667" />
    <sodipodi:guide
       inkscape:color="rgb(0,0,255)"
       inkscape:label=""
       inkscape:locked="false"
       id="guide817"
       orientation="1,0"
       position="5.2916667,0" />
    <sodipodi:guide
       inkscape:color="rgb(0,0,255)"
       inkscape:label=""
       inkscape:locked="false"
       id="guide819"
       orientation="0,1"
       position="0,259.29167" />
    <sodipodi:guide
       inkscape:color="rgb(0,0,255)"
       inkscape:label=""
       inkscape:locked="false"
       id="guide821"
       orientation="1,0"
       position="259.29167,0" />
    <sodipodi:guide
       inkscape:color="rgb(0,0,255)"
       inkscape:label=""
       inkscape:locked="false"
       id="guide823"
       orientation="1,0"
       position="29.104167,0" />
    <sodipodi:guide
       inkscape:color="rgb(0,0,255)"
       inkscape:label=""
       inkscape:locked="false"
       id="guide825"
       orientation="1,0"
       position="235.47917,0" />
    <sodipodi:guide
       inkscape:color="rgb(0,0,255)"
       inkscape:label=""
       inkscape:locked="false"
       id="guide827"
       orientation="0,1"
       position="132.29167,161.39583" />
    <sodipodi:guide
       inkscape:color="rgb(0,0,255)"
       inkscape:label=""
       inkscape:locked="false"
       id="guide829"
       orientation="1,0"
       position="132.29167,161.39583" />
  </sodipodi:namedview>
  <defs
     id="defs958" />
  <metadata
     id="metadata961">
    <rdf:RDF>
      <cc:Work
         rdf:about="">
        <dc:format>image/svg+xml</dc:format>
        <dc:type
           rdf:resource="http://purl.org/dc/dcmitype/StillImage" />
        <dc:title />
      </cc:Work>
    </rdf:RDF>
  </metadata>
  <g
     inkscape:groupmode="layer"
     id="layer1"
     transform="translate(0,-32.41665)">
    <path
       d="m 144.70288,175.30013 h 112.77019 c 1.00766,0 1.81888,0.81121 1.81888,1.81887 v 112.77098 c 0,1.00766 -0.81122,1.81887 -1.81888,1.81887 H 144.70288 c -1.00766,0 -1.81888,-0.81121 -1.81888,-1.81887 V 177.119 c 0,-1.00766 0.81122,-1.81887 1.81888,-1.81887 z m -137.5920073,0 H 119.88093 c 1.00766,0 1.81887,0.81121 1.81887,1.81887 v 112.77098 c 0,1.00766 -0.81121,1.81887 -1.81887,1.81887 H 7.1108727 c -1.0076563,0 -1.8188743,-0.81121 -1.8188743,-1.81887 V 177.119 c 0,-1.00766 0.811218,-1.81887 1.8188743,-1.81887 z M 144.70288,37.707294 h 112.77019 c 1.00766,0 1.81888,0.811219 1.81888,1.818875 V 152.29702 c 0,1.00766 -0.81122,1.81887 -1.81888,1.81887 H 144.70288 c -1.00766,0 -1.81888,-0.81121 -1.81888,-1.81887 V 39.526169 c 0,-1.007656 0.81122,-1.818875 1.81888,-1.818875 z m -137.5920073,0 H 119.88093 c 1.00766,0 1.81887,0.811219 1.81887,1.818875 V 152.29702 c 0,1.00766 -0.81121,1.81887 -1.81887,1.81887 H 7.1108727 c -1.0076563,0 -1.8188743,-0.81121 -1.8188743,-1.81887 V 39.526169 c 0,-1.007656 0.811218,-1.818875 1.8188743,-1.818875 z"
       style="fill:#000000;stroke-width:0.0328268;stop-color:#000000"
       id="rect857" />
  </g>
</svg>
