<?xml version="1.0" encoding="UTF-8" standalone="no"?>
<svg
   xmlns:dc="http://purl.org/dc/elements/1.1/"
   xmlns:cc="http://creativecommons.org/ns#"
   xmlns:rdf="http://www.w3.org/1999/02/22-rdf-syntax-ns#"
   xmlns:svg="http://www.w3.org/2000/svg"
   xmlns="http://www.w3.org/2000/svg"
   xmlns:sodipodi="http://sodipodi.sourceforge.net/DTD/sodipodi-0.dtd"
   xmlns:inkscape="http://www.inkscape.org/namespaces/inkscape"
   id="svg964"
   version="1.1"
   viewBox="0 0 264.58333 264.58334"
   height="1000"
   width="1000"
   sodipodi:docname="U+1F50A Speaker with Three Sound Waves.svg"
   inkscape:version="0.92.3 (2405546, 2018-03-11)">
  <sodipodi:namedview
     pagecolor="#ffffff"
     bordercolor="#666666"
     borderopacity="1"
     objecttolerance="10"
     gridtolerance="10"
     guidetolerance="10"
     inkscape:pageopacity="0"
     inkscape:pageshadow="2"
     inkscape:window-width="1920"
     inkscape:window-height="1016"
     id="namedview8"
     showgrid="false"
     showguides="true"
     inkscape:guide-bbox="true"
     inkscape:zoom="1.039963"
     inkscape:cx="755.38558"
     inkscape:cy="561.27698"
     inkscape:window-x="0"
     inkscape:window-y="27"
     inkscape:window-maximized="1"
     inkscape:current-layer="layer1"
     inkscape:snap-global="true">
    <sodipodi:guide
       position="0,52.916667"
       orientation="0,1"
       id="guide815"
       inkscape:locked="false"
       inkscape:label=""
       inkscape:color="rgb(0,0,255)" />
    <sodipodi:guide
       position="5.2916667,0"
       orientation="1,0"
       id="guide817"
       inkscape:locked="false"
       inkscape:label=""
       inkscape:color="rgb(0,0,255)" />
    <sodipodi:guide
       position="0,259.29167"
       orientation="0,1"
       id="guide819"
       inkscape:locked="false"
       inkscape:label=""
       inkscape:color="rgb(0,0,255)" />
    <sodipodi:guide
       position="259.29167,0"
       orientation="1,0"
       id="guide821"
       inkscape:locked="false"
       inkscape:label=""
       inkscape:color="rgb(0,0,255)" />
    <sodipodi:guide
       position="29.104167,0"
       orientation="1,0"
       id="guide823"
       inkscape:locked="false"
       inkscape:label=""
       inkscape:color="rgb(0,0,255)" />
    <sodipodi:guide
       position="235.47917,0"
       orientation="1,0"
       id="guide825"
       inkscape:locked="false"
       inkscape:label=""
       inkscape:color="rgb(0,0,255)" />
    <sodipodi:guide
       position="132.29167,161.39583"
       orientation="0,1"
       id="guide827"
       inkscape:locked="false"
       inkscape:label=""
       inkscape:color="rgb(0,0,255)" />
    <sodipodi:guide
       position="132.29167,161.39583"
       orientation="1,0"
       id="guide829"
       inkscape:locked="false"
       inkscape:label=""
       inkscape:color="rgb(0,0,255)" />
  </sodipodi:namedview>
  <defs
     id="defs958" />
  <metadata
     id="metadata961">
    <rdf:RDF>
      <cc:Work
         rdf:about="">
        <dc:format>image/svg+xml</dc:format>
        <dc:type
           rdf:resource="http://purl.org/dc/dcmitype/StillImage" />
        <dc:title />
      </cc:Work>
    </rdf:RDF>
  </metadata>
  <g
     transform="translate(0,-32.41665)"
     id="layer1"
     inkscape:groupmode="layer">
    <path
       style="color:#000000;font-style:normal;font-variant:normal;font-weight:normal;font-stretch:normal;font-size:medium;line-height:normal;font-family:sans-serif;font-variant-ligatures:normal;font-variant-position:normal;font-variant-caps:normal;font-variant-numeric:normal;font-variant-alternates:normal;font-feature-settings:normal;text-indent:0;text-align:start;text-decoration:none;text-decoration-line:none;text-decoration-style:solid;text-decoration-color:#000000;letter-spacing:normal;word-spacing:normal;text-transform:none;writing-mode:lr-tb;direction:ltr;text-orientation:mixed;dominant-baseline:auto;baseline-shift:baseline;text-anchor:start;white-space:normal;shape-padding:0;clip-rule:nonzero;display:inline;overflow:visible;visibility:visible;opacity:1;isolation:auto;mix-blend-mode:normal;color-interpolation:sRGB;color-interpolation-filters:linearRGB;solid-color:#000000;solid-opacity:1;vector-effect:none;fill:#000000;fill-opacity:1;fill-rule:nonzero;stroke:none;stroke-width:30;stroke-linecap:butt;stroke-linejoin:round;stroke-miterlimit:4;stroke-dasharray:none;stroke-dashoffset:0;stroke-opacity:1;color-rendering:auto;image-rendering:auto;shape-rendering:auto;text-rendering:auto;enable-background:accumulate"
       d="M 484.74219 165.21094 C 481.46507 165.30679 478.30896 166.474 475.75781 168.5332 L 282.64453 324.57617 L 34.949219 324.57617 C 26.665288 324.577 19.95005 331.2922 19.949219 339.57617 L 19.949219 644.40039 C 19.95005 652.68432 26.665288 659.39956 34.949219 659.40039 L 262.81641 659.40039 L 475.75781 831.46484 C 485.56622 839.38586 500.17721 832.40823 500.18359 819.80078 L 500.18359 180.20508 C 500.18223 171.74797 493.19563 164.96209 484.74219 165.21094 z M 876.86523 199.69336 C 875.19506 199.73399 873.54347 200.05184 871.97852 200.63672 L 800.04883 227.61914 C 790.72609 231.12057 787.34036 242.56637 793.25781 250.57617 C 844.71918 320.24234 875.10742 406.37235 875.10742 499.94336 C 875.10742 591.93283 845.74202 676.72496 795.85547 745.75977 C 790.17219 753.62504 793.34048 764.73472 802.31641 768.42188 L 872.73047 797.32227 C 879.31705 800.0224 886.89572 797.72283 890.86914 791.81641 C 944.66917 711.81469 977.04812 616.16489 979.64258 513.34961 C 979.64417 513.22413 979.64417 513.09814 979.64258 512.97266 L 979.64258 486.90625 C 979.64417 486.78077 979.64417 486.65673 979.64258 486.53125 C 977.02866 382.94396 944.18613 286.62909 889.6582 206.26172 C 886.78996 202.0373 881.96971 199.56343 876.86523 199.69336 z M 739.73242 251.22461 C 737.97188 251.23973 736.22799 251.5658 734.58008 252.18555 L 664.35547 278.52344 C 655.82938 281.72349 652.09733 291.72067 656.44141 299.72461 C 688.6996 359.18599 707.01563 427.31195 707.01562 499.94336 C 707.01562 569.50662 690.20981 634.92705 660.45117 692.57422 C 656.41554 700.393 659.94447 709.99017 668.08398 713.33203 L 737.14062 741.67773 C 744.39754 744.6574 752.72396 741.54392 756.24414 734.5332 C 791.72147 663.91099 811.72067 584.17527 811.7207 499.94336 C 811.7207 413.30635 790.56195 331.42543 753.16602 259.32422 C 750.56816 254.31194 745.37775 251.18088 739.73242 251.22461 z M 596.02148 305.23047 C 594.17662 305.21535 592.34405 305.54205 590.61719 306.19141 L 520.87305 332.35156 C 513.10865 335.26429 509.18062 343.92497 512.10352 351.68555 C 529.44066 397.74521 538.92969 447.67401 538.92969 499.94336 C 538.92969 547.59292 531.03301 593.28945 516.50391 635.89648 C 513.94392 643.40353 517.66997 651.60435 525.00781 654.61523 L 594.06445 682.95508 C 602.00112 686.21367 611.05039 682.16384 613.9082 674.07422 C 633.15681 619.5579 643.63477 560.92547 643.63477 499.94336 C 643.63477 434.88046 631.69314 372.49004 609.91406 314.92383 C 607.72481 309.13737 602.20797 305.28746 596.02148 305.23047 z "
       transform="matrix(0.26458333,0,0,0.26458333,0,32.41665)"
       id="path828" />
  </g>
</svg>
