<?xml version="1.0" encoding="UTF-8" standalone="no"?>
<svg
   xmlns:dc="http://purl.org/dc/elements/1.1/"
   xmlns:cc="http://creativecommons.org/ns#"
   xmlns:rdf="http://www.w3.org/1999/02/22-rdf-syntax-ns#"
   xmlns:svg="http://www.w3.org/2000/svg"
   xmlns="http://www.w3.org/2000/svg"
   xmlns:sodipodi="http://sodipodi.sourceforge.net/DTD/sodipodi-0.dtd"
   xmlns:inkscape="http://www.inkscape.org/namespaces/inkscape"
   id="svg964"
   version="1.1"
   viewBox="0 0 264.58333 264.58334"
   height="1000"
   width="1000"
   sodipodi:docname="U+27A3 Three-D Bottom-Lighted Rightwards Arrowhead.svg"
   inkscape:version="0.92.3 (2405546, 2018-03-11)">
  <sodipodi:namedview
     pagecolor="#ffffff"
     bordercolor="#666666"
     borderopacity="1"
     objecttolerance="10"
     gridtolerance="10"
     guidetolerance="10"
     inkscape:pageopacity="0"
     inkscape:pageshadow="2"
     inkscape:window-width="1920"
     inkscape:window-height="1016"
     id="namedview8"
     showgrid="false"
     showguides="true"
     inkscape:guide-bbox="true"
     inkscape:zoom="0.40141775"
     inkscape:cx="-696.51465"
     inkscape:cy="600.56652"
     inkscape:window-x="0"
     inkscape:window-y="27"
     inkscape:window-maximized="1"
     inkscape:current-layer="svg964"
     inkscape:snap-global="true">
    <sodipodi:guide
       position="0,52.916667"
       orientation="0,1"
       id="guide815"
       inkscape:locked="false"
       inkscape:label=""
       inkscape:color="rgb(0,0,255)" />
    <sodipodi:guide
       position="5.2916667,0"
       orientation="1,0"
       id="guide817"
       inkscape:locked="false"
       inkscape:label=""
       inkscape:color="rgb(0,0,255)" />
    <sodipodi:guide
       position="0,259.29167"
       orientation="0,1"
       id="guide819"
       inkscape:locked="false"
       inkscape:label=""
       inkscape:color="rgb(0,0,255)" />
    <sodipodi:guide
       position="259.29167,0"
       orientation="1,0"
       id="guide821"
       inkscape:locked="false"
       inkscape:label=""
       inkscape:color="rgb(0,0,255)" />
    <sodipodi:guide
       position="29.104167,0"
       orientation="1,0"
       id="guide823"
       inkscape:locked="false"
       inkscape:label=""
       inkscape:color="rgb(0,0,255)" />
    <sodipodi:guide
       position="235.47917,0"
       orientation="1,0"
       id="guide825"
       inkscape:locked="false"
       inkscape:label=""
       inkscape:color="rgb(0,0,255)" />
    <sodipodi:guide
       position="132.29167,161.39583"
       orientation="0,1"
       id="guide827"
       inkscape:locked="false"
       inkscape:label=""
       inkscape:color="rgb(0,0,255)" />
    <sodipodi:guide
       position="132.29167,161.39583"
       orientation="1,0"
       id="guide829"
       inkscape:locked="false"
       inkscape:label=""
       inkscape:color="rgb(0,0,255)" />
  </sodipodi:namedview>
  <defs
     id="defs958" />
  <metadata
     id="metadata961">
    <rdf:RDF>
      <cc:Work
         rdf:about="">
        <dc:format>image/svg+xml</dc:format>
        <dc:type
           rdf:resource="http://purl.org/dc/dcmitype/StillImage" />
        <dc:title />
      </cc:Work>
    </rdf:RDF>
  </metadata>
  <g
     transform="translate(0,-32.41665)"
     id="layer1"
     inkscape:groupmode="layer">
    <path
       style="color:#000000;font-style:normal;font-variant:normal;font-weight:normal;font-stretch:normal;font-size:medium;line-height:normal;font-family:sans-serif;font-variant-ligatures:normal;font-variant-position:normal;font-variant-caps:normal;font-variant-numeric:normal;font-variant-alternates:normal;font-feature-settings:normal;text-indent:0;text-align:start;text-decoration:none;text-decoration-line:none;text-decoration-style:solid;text-decoration-color:#000000;letter-spacing:normal;word-spacing:normal;text-transform:none;writing-mode:lr-tb;direction:ltr;text-orientation:mixed;dominant-baseline:auto;baseline-shift:baseline;text-anchor:start;white-space:normal;shape-padding:0;clip-rule:nonzero;display:inline;overflow:visible;visibility:visible;opacity:1;isolation:auto;mix-blend-mode:normal;color-interpolation:sRGB;color-interpolation-filters:linearRGB;solid-color:#000000;solid-opacity:1;vector-effect:none;fill:#000000;fill-opacity:1;fill-rule:nonzero;stroke:none;stroke-width:7.9375;stroke-linecap:butt;stroke-linejoin:round;stroke-miterlimit:4;stroke-dasharray:none;stroke-dashoffset:0;stroke-opacity:1;color-rendering:auto;image-rendering:auto;shape-rendering:auto;text-rendering:auto;enable-background:accumulate"
       d="m 8.7736245,75.791674 c -0.123916,-0.0016 -0.2452709,0.0044 -0.3653523,0.01344 a 3.9691468,3.9691468 0 0 0 -0.067179,0.0062 C 7.2317321,75.913716 6.2976727,76.45878 5.6601195,77.238097 a 3.9691468,3.9691468 0 0 0 -0.028422,0.03514 c -0.075952,0.095 -0.1484805,0.192712 -0.2154907,0.294039 a 3.9691468,3.9691468 0 0 0 -0.019637,0.03101 c -0.057995,0.08945 -0.1120172,0.181192 -0.1627807,0.274919 a 3.9691468,3.9691468 0 0 0 -0.03824,0.07183 c -0.054268,0.105191 -0.1039474,0.212806 -0.1488281,0.322461 a 3.9691468,3.9691468 0 0 0 -0.00982,0.02481 c -0.3795162,0.945056 -0.4031882,2.039264 0.054261,3.065962 a 3.9691468,3.9691468 0 0 0 0.010335,0.02222 c 0.045024,0.09943 0.094615,0.198189 0.1488282,0.296106 a 3.9691468,3.9691468 0 0 0 0.056327,0.103353 L 51.196358,159.41706 h 5.16e-4 l 0.154512,0.26097 -46.1444686,88.1388 a 3.9691468,3.9691468 0 0 0 4.8772216,5.56814 L 256.69337,163.28763 a 3.9691468,3.9691468 0 0 0 2.59829,-3.87057 h 0.006 c -0.002,-0.046 -0.007,-0.0913 -0.0103,-0.13694 a 3.9691468,3.9691468 0 0 0 -0.005,-0.0667 c -0.0102,-0.11599 -0.0244,-0.23085 -0.0444,-0.34416 a 3.9691468,3.9691468 0 0 0 -0.004,-0.0253 c -0.0235,-0.12819 -0.0528,-0.25426 -0.0884,-0.37827 -2e-4,-6.9e-4 -3.2e-4,-0.001 -5.2e-4,-0.002 a 3.9691468,3.9691468 0 0 0 -0.003,-0.007 c -0.0328,-0.11324 -0.0712,-0.22416 -0.11369,-0.33331 a 3.9691468,3.9691468 0 0 0 -0.0295,-0.0739 c -0.0397,-0.0964 -0.0832,-0.19104 -0.13022,-0.2837 a 3.9691468,3.9691468 0 0 0 -0.0264,-0.0532 c -0.0583,-0.1107 -0.12084,-0.2185 -0.18913,-0.32298 a 3.9691468,3.9691468 0 0 0 -0.015,-0.0217 c -0.0618,-0.0932 -0.12802,-0.18318 -0.1974,-0.27079 a 3.9691468,3.9691468 0 0 0 -0.0568,-0.0692 c -0.0635,-0.0766 -0.12978,-0.15103 -0.19895,-0.22273 a 3.9691468,3.9691468 0 0 0 -0.0481,-0.0501 c -0.0872,-0.0873 -0.17798,-0.171 -0.27337,-0.25012 a 3.9691468,3.9691468 0 0 0 -0.0248,-0.0196 c -0.0848,-0.0692 -0.17282,-0.13464 -0.26355,-0.19689 a 3.9691468,3.9691468 0 0 0 -0.0811,-0.0532 c -0.079,-0.0514 -0.15982,-0.1003 -0.24288,-0.14624 a 3.9691468,3.9691468 0 0 0 -0.0765,-0.0419 c -0.10802,-0.0567 -0.21815,-0.11014 -0.33228,-0.1571 a 3.9691468,3.9691468 0 0 0 -0.28991,-0.10645 L 9.9451294,75.984944 c -0.1129358,-0.03663 -0.2276441,-0.06619 -0.3431315,-0.0925 A 3.9691468,3.9691468 0 0 0 9.4924437,75.869706 C 9.410698,75.853492 9.3285502,75.839917 9.245947,75.828881 a 3.9691468,3.9691468 0 0 0 -0.119889,-0.01499 c -0.1153425,-0.01185 -0.2310612,-0.02 -0.3472657,-0.0217 -0.00173,-2.6e-5 -0.00344,-4.94e-4 -0.00517,-5.17e-4 z M 59.854745,159.41706 H 241.99763 l 1.14515,0.37052 -226.146918,82.62286 42.412398,-81.00952 a 3.9691468,3.9691468 0 0 0 0.446485,-1.98386 z"
       id="path943"
       inkscape:connector-curvature="0" />
  </g>
</svg>
