<?xml version="1.0" encoding="UTF-8" standalone="no"?>
<svg
   xmlns:dc="http://purl.org/dc/elements/1.1/"
   xmlns:cc="http://creativecommons.org/ns#"
   xmlns:rdf="http://www.w3.org/1999/02/22-rdf-syntax-ns#"
   xmlns:svg="http://www.w3.org/2000/svg"
   xmlns="http://www.w3.org/2000/svg"
   xmlns:sodipodi="http://sodipodi.sourceforge.net/DTD/sodipodi-0.dtd"
   xmlns:inkscape="http://www.inkscape.org/namespaces/inkscape"
   id="svg8"
   version="1.1"
   viewBox="0 0 264.58333 264.58334"
   height="1000"
   width="1000"
   sodipodi:docname="U+2328  Keyboard.svg"
   inkscape:version="0.92.3 (2405546, 2018-03-11)">
  <sodipodi:namedview
     pagecolor="#ffffff"
     bordercolor="#666666"
     borderopacity="1"
     objecttolerance="10"
     gridtolerance="10"
     guidetolerance="10"
     inkscape:pageopacity="0"
     inkscape:pageshadow="2"
     inkscape:window-width="1920"
     inkscape:window-height="1016"
     id="namedview7"
     showgrid="false"
     inkscape:zoom="0.6675088"
     inkscape:cx="36.943583"
     inkscape:cy="434.3724"
     inkscape:window-x="0"
     inkscape:window-y="27"
     inkscape:window-maximized="1"
     inkscape:current-layer="svg8"
     showguides="true"
     inkscape:guide-bbox="true">
    <sodipodi:guide
       position="0,52.916667"
       orientation="0,1"
       id="guide816"
       inkscape:locked="false"
       inkscape:label=""
       inkscape:color="rgb(0,0,255)" />
    <sodipodi:guide
       position="0,259.29167"
       orientation="0,1"
       id="guide814"
       inkscape:locked="false"
       inkscape:label=""
       inkscape:color="rgb(0,0,255)" />
    <sodipodi:guide
       position="5.2916667,0"
       orientation="1,0"
       id="guide817"
       inkscape:locked="false"
       inkscape:label=""
       inkscape:color="rgb(0,0,255)" />
    <sodipodi:guide
       position="259.29167,0"
       orientation="1,0"
       id="guide819"
       inkscape:locked="false"
       inkscape:label=""
       inkscape:color="rgb(0,0,255)" />
  </sodipodi:namedview>
  <defs
     id="defs2" />
  <metadata
     id="metadata5">
    <rdf:RDF>
      <cc:Work
         rdf:about="">
        <dc:format>image/svg+xml</dc:format>
        <dc:type
           rdf:resource="http://purl.org/dc/dcmitype/StillImage" />
        <dc:title />
      </cc:Work>
    </rdf:RDF>
  </metadata>
  <g
     transform="translate(0,-35.062481)"
     id="layer1"
     style="fill:#000000"
     inkscape:groupmode="layer">
    <path
       id="rect828"
       transform="matrix(0.26458333,0,0,0.26458333,0,32.41665)"
       d="m 70,220 c -27.700001,0 -50,22.3 -50,50 v 480 c 0,27.7 22.299999,50 50,50 h 860 c 27.7,0 50,-22.3 50,-50 V 270 c 0,-27.7 -22.3,-50 -50,-50 z m 65,60 h 90 c 5.54,0 10,4.46 10,10 v 90 c 0,5.54 -4.46,10 -10,10 h -90 c -5.54,0 -10,-4.46 -10,-10 v -90 c 0,-5.54 4.46,-10 10,-10 z m 160,0 h 90 c 5.54,0 10,4.46 10,10 v 90 c 0,5.54 -4.46,10 -10,10 h -90 c -5.54,0 -10,-4.46 -10,-10 v -90 c 0,-5.54 4.46,-10 10,-10 z m 160,0 h 90 c 5.54,0 10,4.46 10,10 v 90 c 0,5.54 -4.46,10 -10,10 h -90 c -5.54,0 -10,-4.46 -10,-10 v -90 c 0,-5.54 4.46,-10 10,-10 z m 160,0 h 90 c 5.54,0 10,4.46 10,10 v 90 c 0,5.54 -4.46,10 -10,10 h -90 c -5.54,0 -10,-4.46 -10,-10 v -90 c 0,-5.54 4.46,-10 10,-10 z m 160,0 h 90 c 5.54,0 10,4.46 10,10 v 90 c 0,5.54 -4.46,10 -10,10 h -90 c -5.54,0 -10,-4.46 -10,-10 v -90 c 0,-5.54 4.46,-10 10,-10 z M 135,440 h 90 c 5.54,0 10,4.46 10,10 v 90 c 0,5.54 -4.46,10 -10,10 h -90 c -5.54,0 -10,-4.46 -10,-10 v -90 c 0,-5.54 4.46,-10 10,-10 z m 160,0 h 90 c 5.54,0 10,4.46 10,10 v 90 c 0,5.54 -4.46,10 -10,10 h -90 c -5.54,0 -10,-4.46 -10,-10 v -90 c 0,-5.54 4.46,-10 10,-10 z m 160,0 h 90 c 5.54,0 10,4.46 10,10 v 90 c 0,5.54 -4.46,10 -10,10 h -90 c -5.54,0 -10,-4.46 -10,-10 v -90 c 0,-5.54 4.46,-10 10,-10 z m 160,0 h 90 c 5.54,0 10,4.46 10,10 v 90 c 0,5.54 -4.46,10 -10,10 h -90 c -5.54,0 -10,-4.46 -10,-10 v -90 c 0,-5.54 4.46,-10 10,-10 z m 160,0 h 90 c 5.54,0 10,4.46 10,10 v 90 c 0,5.54 -4.46,10 -10,10 h -90 c -5.54,0 -10,-4.46 -10,-10 v -90 c 0,-5.54 4.46,-10 10,-10 z M 260,610 h 480 c 5.54,0 10,4.46 10,10 v 90 c 0,5.54 -4.46,10 -10,10 H 260 c -5.54,0 -10,-4.46 -10,-10 v -90 c 0,-5.54 4.46,-10 10,-10 z"
       style="fill:#000000;fill-opacity:1;stroke-width:0.98675704"
       inkscape:connector-curvature="0" />
  </g>
</svg>
